<?xml version="1.0" encoding="UTF-8" standalone="no"?>
<svg
   width="424"
   height="520"
   viewBox="0 0 424 520"
   version="1.1"
   xml:space="preserve"
   style="clip-rule:evenodd;fill-rule:evenodd;stroke-linejoin:round;stroke-miterlimit:2"
   id="svg4"
   xmlns="http://www.w3.org/2000/svg"
   xmlns:svg="http://www.w3.org/2000/svg"><defs
   id="defs4" />
    
    
    
    
<path
   style="font-weight:bold;font-size:85.3333px;line-height:0.9;font-family:'Berlin Sans FB Demi';-inkscape-font-specification:'Berlin Sans FB Demi Bold';text-align:center;letter-spacing:0px;word-spacing:0px;text-anchor:middle;white-space:pre;fill:#ffffff;stroke-width:4.99647;stroke-linecap:square;paint-order:markers fill stroke"
   d="m 56.709562,220.83014 q 0,11.12152 -9.368381,19.06546 -8.217873,7.01259 -19.996828,8.93009 -0.438286,0.0548 -0.712216,0.0548 -1.260073,0 -5.588155,-7.67002 -4.32808,-7.7248 -4.32808,-9.42316 0,-0.60265 0.821787,-0.76701 7.943946,-1.80793 10.518879,-3.068 5.697728,-2.84886 5.697728,-8.43701 0,-3.56108 -3.725437,-7.94396 -6.464729,-7.45086 -7.012586,-8.27265 -3.780223,-5.69773 -3.780223,-12.60074 0,-10.02582 9.258806,-16.6549 7.560444,-5.47859 18.5724,-7.12216 0.60264,-0.0548 0.931355,-0.0548 0.821788,0 1.314861,1.31486 1.424427,3.99936 6.629079,14.46345 0.164358,0.32872 0.164358,0.54787 0,0.93135 -0.986132,0.93135 -0.438296,0 -1.479218,-0.16436 -1.040936,-0.16435 -1.588799,-0.16435 -3.944582,0 -6.903018,1.80793 -3.561072,2.08186 -3.561072,5.8073 0,3.34193 3.944578,8.21787 6.957808,8.76574 7.286523,9.20402 3.889791,6.02644 3.889791,11.99811 z m 73.084298,12.81988 q 0,0.87657 -1.1505,2.301 -10.0806,11.9981 -26.79027,11.9981 -17.093187,0 -27.721639,-11.66938 -10.354527,-11.28589 -10.354527,-28.48864 0,-16.65489 10.135379,-28.26949 10.573675,-12.16244 26.899847,-12.16244 17.75061,0 27.83121,10.90237 1.09571,1.20529 1.09571,2.13665 0,1.04094 -3.83501,7.72481 -3.78021,6.68387 -4.76636,7.50565 -0.43829,0.43829 -1.09572,0.43829 -0.27393,0 -2.73929,-2.19143 -2.95844,-2.62972 -5.80729,-4.10894 -4.32809,-2.19144 -8.98489,-2.19144 -8.053511,0 -12.874671,6.02644 -4.437654,5.58816 -4.437654,13.80604 0,8.32744 4.437654,13.97038 4.82116,6.13602 12.874671,6.13602 4.76637,0 9.03966,-2.08186 2.79408,-1.36965 5.69773,-3.83501 2.41058,-2.08186 2.68451,-2.08186 0.54786,0 1.09571,0.60264 0.87658,0.98614 4.76637,6.84823 3.99937,6.08123 3.99937,6.68387 z m 71.22158,11.83374 q 0,0.38351 -1.09571,0.54786 -2.08186,0.32872 -10.4641,0.32872 -7.17694,0 -9.75188,-0.32872 -1.20528,-0.16435 -1.36964,-0.27393 -0.32872,-0.16436 -0.767,-1.09572 -0.82179,-2.13665 -2.41059,-6.35515 -2.13664,-5.47859 -6.68387,-16.16182 -0.98614,-2.13665 -4.54722,-2.3558 1.64358,0.10953 -5.64294,0.10953 -0.82179,0 -0.82179,2.79408 0,3.72545 0.65743,11.12152 0.71222,7.39609 0.71222,11.12153 0,0.93137 -0.49307,1.09572 -0.767,0.0548 -1.53401,0.10953 -3.23236,0.21915 -10.08059,0.21915 -7.83437,0 -9.42316,-0.32872 -1.5888,-0.32871 -1.5888,-1.69836 0,-6.02644 0.54787,-18.1889 0.60264,-12.16245 0.60264,-18.24368 0,-23.1744 -1.04093,-36.15865 l -0.0548,-0.767 q -0.0548,-0.93137 1.69837,-1.26008 1.80793,-0.32872 16.76446,-0.65743 10.13538,-0.21914 16.16182,-0.21914 12.49117,0 20.38033,5.64294 8.93009,6.35515 8.93009,18.35326 0,7.99873 -2.30101,12.7651 -2.301,4.76637 -8.4918,9.2588 -1.26007,0.87657 -1.26007,1.64357 0,-0.0548 6.68387,13.75125 6.68387,13.80603 6.68387,15.23046 z m -23.01005,-49.1429 q 0,-6.68387 -4.38286,-9.2588 -3.39673,-1.97229 -10.62845,-1.97229 -5.20467,0 -5.53338,1.58878 -0.32872,1.86273 -0.32872,10.73804 0,1.26007 0.0548,3.72543 0.0548,2.46536 0.0548,3.67066 0,0.27392 1.75315,0.54785 3.34194,0.49307 7.01258,0.49307 11.9981,0 11.9981,-9.53274 z m 85.30154,32.65237 q 0,2.35578 -0.93135,8.65616 -0.98615,6.84822 -1.75315,8.16309 -0.65743,1.04093 -1.80793,1.04093 -0.49307,0 -1.64358,-0.16436 -3.99937,-0.54786 -23.33877,-0.54786 -4.21851,0 -12.54595,-0.0548 -8.32745,-0.0548 -12.49118,-0.0548 -1.80792,0 -1.80792,-1.5888 0,-6.136 0.65743,-18.40803 0.71221,-12.32682 0.71221,-18.46283 0,-6.24558 -0.65743,-23.28398 -0.16436,-4.38286 -0.60264,-13.09382 l -0.0548,-0.76699 q -0.10953,-1.26007 1.36965,-1.26007 4.05415,0 12.16245,0.21913 8.1631,0.21915 12.21725,0.21915 3.99936,0 12.05288,-0.21915 8.05352,-0.21913 12.05288,-0.21913 2.84887,0 3.28715,2.13664 0.27394,1.26007 0.82179,7.67002 0.60264,6.35515 0.60264,7.72479 0,1.15051 -1.09572,1.15051 -0.32871,0 -1.1505,-0.0548 -14.57303,-1.2053 -26.18763,-1.2053 -2.90365,0 -3.56108,1.36965 -0.27392,0.65743 -0.27392,4.21851 0,3.72543 1.09571,4.93073 0.93136,1.04092 3.56108,1.04092 0.54786,0 2.13665,-0.0548 1.5888,-0.10953 2.62972,-0.10953 6.90302,0 13.97039,-0.38349 0.60264,-0.0548 3.01321,-0.27394 1.86273,-0.21913 2.95844,-0.21913 1.31486,0 1.31486,1.26007 0,-1.15051 -0.98614,8.38223 -0.43829,4.38287 -0.43829,8.76573 0,1.09571 -1.58878,1.09571 0,0 -4.93073,-0.54785 -3.12279,-0.32871 -14.24432,-0.32871 h -5.8073 q -2.24622,0 -2.62971,1.09571 -0.0548,0.27393 -0.0548,3.39672 0,4.16373 0.54785,5.36902 0.93137,2.08186 7.0126,2.46535 -0.10953,0 7.99873,0 2.90364,0 8.60137,-0.49307 5.75251,-0.54785 8.60137,-0.54785 1.20529,0 1.20529,1.97229 z m 63.38721,0 q 0,2.35578 -0.93136,8.65616 -0.98614,6.84822 -1.75314,8.16309 -0.65743,1.04093 -1.80794,1.04093 -0.49307,0 -1.64357,-0.16436 -3.99937,-0.54786 -23.33876,-0.54786 -4.21852,0 -12.54597,-0.0548 -8.32744,-0.0548 -12.49116,-0.0548 -1.80793,0 -1.80793,-1.5888 0,-6.136 0.65743,-18.40803 0.7122,-12.32682 0.7122,-18.46283 0,-6.24558 -0.65743,-23.28398 -0.16435,-4.38286 -0.60264,-13.09382 l -0.0548,-0.76699 q -0.10952,-1.26007 1.36964,-1.26007 4.05415,0 12.16246,0.21913 8.16309,0.21915 12.21724,0.21915 3.99937,0 12.05288,-0.21915 8.05352,-0.21913 12.05289,-0.21913 2.84886,0 3.28714,2.13664 0.27394,1.26007 0.82179,7.67002 0.60265,6.35515 0.60265,7.72479 0,1.15051 -1.09573,1.15051 -0.32871,0 -1.15049,-0.0548 -14.57303,-1.2053 -26.18763,-1.2053 -2.90365,0 -3.56108,1.36965 -0.27393,0.65743 -0.27393,4.21851 0,3.72543 1.09571,4.93073 0.93137,1.04092 3.56109,1.04092 0.54785,0 2.13665,-0.0548 1.58879,-0.10953 2.62972,-0.10953 6.90301,0 13.97038,-0.38349 0.60264,-0.0548 3.01323,-0.27394 1.86271,-0.21913 2.95843,-0.21913 1.31485,0 1.31485,1.26007 0,-1.15051 -0.98613,8.38223 -0.4383,4.38287 -0.4383,8.76573 0,1.09571 -1.58878,1.09571 0,0 -4.93073,-0.54785 -3.12279,-0.32871 -14.24432,-0.32871 h -5.80729 q -2.24623,0 -2.62972,1.09571 -0.0548,0.27393 -0.0548,3.39672 0,4.16373 0.54786,5.36902 0.93136,2.08186 7.01259,2.46535 -0.10953,0 7.99873,0 2.90365,0 8.60137,-0.49307 5.75251,-0.54785 8.60138,-0.54785 1.20528,0 1.20528,1.97229 z m 80.58995,-58.12778 q 0,6.24559 -0.54785,18.79154 -0.49307,12.49118 -0.49307,18.79154 v 36.10388 q 0,1.47921 -1.58878,1.47921 -1.31486,0 -3.99938,0.10953 -2.62972,0.10953 -3.94458,0.10953 -1.42442,0 -4.27329,-0.21914 -2.84886,-0.21914 -4.2733,-0.21914 -0.98615,0 -2.35578,-1.80794 -3.94459,-5.31423 -17.75062,-23.55791 -3.78021,-5.09508 -11.50502,-15.01131 -0.21914,-0.32872 -0.82179,-0.65743 -0.43829,0.3835 -0.43829,1.20528 0,6.35517 0.32871,19.06548 0.38351,12.71031 0.38351,19.06546 0,1.91751 -1.47922,1.91751 h -18.9559 q -1.58878,0 -1.58878,-1.69836 0,-5.91687 0.54785,-17.86019 0.60265,-11.94331 0.60265,-17.91496 0,-6.30038 -0.54786,-18.84633 -0.49307,-12.54595 -0.49307,-18.79154 0,-1.20529 2.13664,-1.20529 3.17759,0 7.83438,-0.43828 1.09571,-0.10953 4.32808,-0.71222 2.73929,-0.49308 4.32808,-0.49308 0.65743,0 2.02708,1.86273 l 20.43511,27.99556 q 2.73929,3.78022 8.27266,11.06673 1.36965,1.69837 2.3558,1.69837 0.7122,0 0.7122,-4.2733 0,-5.75251 -0.65743,-17.31232 -0.60264,-11.55982 -0.60264,-17.36711 0,-2.02708 1.15051,-2.02708 3.28715,0 9.91623,-0.27393 6.62909,-0.27392 9.91624,-0.27392 1.04092,0 1.04092,1.69835 z M 123.68524,313.85247 q 0,16.10703 -10.35452,27.94077 -9.14924,10.57367 -25.69456,11.12153 -3.177571,0.10953 -17.476679,0.10953 -2.684511,0 -8.108298,-0.16436 -5.369023,-0.16436 -8.053521,-0.16436 -1.588785,0 -1.588785,-1.26007 0,-6.02644 0.438282,-18.07932 0.493073,-12.10767 0.493073,-18.13411 0,-6.30038 -0.493073,-18.84633 -0.438282,-12.60074 -0.438282,-18.84633 0,-1.1505 1.588785,-1.36965 3.889792,-0.43828 12.7651,-0.43828 16.874039,0 21.859543,0.49307 12.984245,1.31486 20.325545,6.5743 6.90302,4.93073 10.90238,13.80603 3.83501,8.38223 3.83501,17.25754 z m -20.98297,0 q 0,-9.2588 -5.533371,-15.12089 -5.588157,-6.08122 -14.792181,-6.08122 -8.437013,0 -8.437013,2.24621 0,3.23237 -0.109528,9.75188 -0.109528,6.46473 -0.109528,9.69709 0,3.17757 0.109528,9.58752 0.109528,6.35515 0.109528,9.58753 0,2.35578 8.765728,2.35578 9.477949,0 14.901748,-6.30036 5.095089,-5.97167 5.095089,-15.72354 z m 51.71783,-1.64357 q 0,6.46472 0.32871,19.44897 0.32872,12.98424 0.32872,19.44897 0,1.09571 -0.49308,1.36965 -0.10952,0.0548 -1.42442,0.21913 -3.56109,0.4383 -9.53274,0.4383 -7.99873,0 -10.19017,-0.4383 -1.58879,-0.32871 -1.58879,-1.69835 0,0.87656 0.49308,-9.64231 0.98614,-22.18827 0.98614,-29.14606 0,-5.86209 -0.3835,-17.58625 -0.3835,-11.72418 -0.3835,-17.58626 0,-1.20529 1.26007,-1.20529 1.69836,0 5.09509,0.16435 3.45151,0.16436 5.14986,0.16436 1.69837,0 4.98552,-0.16436 3.34193,-0.16435 5.04029,-0.16435 1.58879,0 1.58879,1.20529 0,5.86208 -0.65743,17.58626 -0.60264,11.72416 -0.60264,17.58625 z m 83.43882,39.11708 q 0,0.98615 -1.36965,1.36964 -1.64357,0.4383 -10.19015,0.4383 -7.83438,0 -10.0806,-0.4383 -1.86272,-0.38349 -2.35579,-2.46536 -1.86272,-7.88915 -2.90366,-8.43702 -0.87656,-0.3835 -14.6826,-0.3835 -9.31359,0 -9.91623,0.49307 -0.93135,0.87658 -2.08186,5.86208 -1.04093,4.54724 -2.52015,4.93073 -1.86272,0.4383 -12.49118,0.4383 -8.38222,0 -8.38222,-1.5888 0,-1.42443 12.3816,-35.00815 13.42253,-36.323 14.57303,-39.93886 0.65743,-2.08187 1.53399,-2.08187 1.47922,0 4.54724,0.27393 3.12279,0.27393 4.65679,0.27393 1.47922,0 4.32809,-0.16436 2.90364,-0.21915 4.32807,-0.21915 1.04093,0 1.91751,1.80794 2.6845,5.75251 15.66875,39.4458 13.03902,33.91244 13.03902,35.39165 z m -38.84316,-49.90989 q -1.15049,2.41057 -3.88979,10.46409 -2.95844,8.54659 -2.95844,10.02581 0,0.98615 3.28715,1.09571 1.69837,0.10953 5.58816,0.10953 3.61587,0 3.99937,-0.87656 0.10953,-0.27394 0.10953,-0.76701 0,-1.80794 -2.52015,-9.97102 -2.46537,-7.88915 -3.61587,-10.08059 z m 109.73604,50.73168 q 0,0.38349 -1.09573,0.54785 -2.08186,0.32872 -10.46409,0.32872 -7.17694,0 -9.75187,-0.32872 -1.2053,-0.16436 -1.36966,-0.27392 -0.3287,-0.16436 -0.76699,-1.09572 -0.82179,-2.13664 -2.41058,-6.35515 -2.13664,-5.47859 -6.68387,-16.16183 -0.98614,-2.13665 -4.54722,-2.35579 1.64358,0.10953 -5.64295,0.10953 -0.82178,0 -0.82178,2.79408 0,3.72543 0.65743,11.12152 0.71222,7.3961 0.71222,11.12153 0,0.93135 -0.49308,1.09571 -0.76701,0.0548 -1.534,0.10953 -3.23236,0.21913 -10.08059,0.21913 -7.83438,0 -9.42317,-0.32871 -1.58879,-0.32872 -1.58879,-1.69835 0,-6.02644 0.54786,-18.1889 0.60264,-12.16246 0.60264,-18.24368 0,-23.17442 -1.04092,-36.15865 l -0.0548,-0.76701 q -0.0548,-0.93136 1.69835,-1.26007 1.80794,-0.32872 16.76448,-0.65743 10.13538,-0.21915 16.16181,-0.21915 12.49118,0 20.38033,5.64295 8.9301,6.35515 8.9301,18.35325 0,7.99873 -2.30101,12.7651 -2.301,4.76636 -8.4918,9.2588 -1.26007,0.87658 -1.26007,1.64358 0,-0.0548 6.68387,13.75125 6.68387,13.80602 6.68387,15.23046 z m -23.01005,-49.1429 q 0,-6.68387 -4.38287,-9.2588 -3.39672,-1.97229 -10.62846,-1.97229 -5.20465,0 -5.53336,1.58879 -0.32872,1.86272 -0.32872,10.73803 0,1.26007 0.0548,3.72543 0.0548,2.46537 0.0548,3.67065 0,0.27393 1.75314,0.54786 3.34193,0.49307 7.01259,0.49307 11.9981,0 11.9981,-9.53274 z m 92.04019,-7.28651 q 0,2.35578 -0.87658,4.10894 -7.17694,14.18953 -19.55854,29.85827 -1.75314,2.30101 -1.75314,4.16373 0,2.90365 0.3287,8.71094 0.32872,5.80731 0.32872,8.65616 0,0.98615 -0.43829,1.2053 -0.10952,0.0548 -1.47921,0.27392 -1.9723,0.32872 -9.86145,0.32872 -7.94395,0 -10.13537,-0.32872 -1.53401,-0.21913 -1.53401,-1.58878 0,-2.90365 0.49307,-8.82052 0.49307,-5.97165 0.49307,-8.93009 0,-1.75315 -1.31486,-3.78022 -6.62909,-9.36838 -18.95589,-28.70779 -1.26008,-2.13664 -1.26008,-3.50628 0,-3.28715 -0.32871,-9.86146 -0.32872,-6.5743 -0.32872,-9.86145 0,-1.80793 1.09572,-1.80793 3.34193,0 10.13538,0.27393 6.79343,0.27393 10.19017,0.27393 1.26007,0 1.26007,0.82179 0,2.79408 -0.27393,8.43701 -0.21915,5.58816 -0.21915,8.38224 0,1.64357 4.82115,8.21787 3.83501,5.14987 6.30038,7.94394 2.24621,-2.62972 5.97165,-7.88915 4.71159,-6.5743 4.71159,-7.94395 0,-2.73929 -0.4383,-8.27265 -0.38349,-5.58816 -0.38349,-8.32745 0,-1.1505 0.49307,-1.31486 0,0 1.36964,0 3.28715,0 9.86146,-0.27394 6.62908,-0.32871 9.97102,-0.32871 1.09571,0 1.09571,2.35579 0,2.90365 0.10953,8.76573 0.10953,5.80731 0.10953,8.76574 z"
   id="text4"
   aria-label="SCREEN&#10;DIARY" /></svg>
